<svg xmlns:xlink="http://www.w3.org/1999/xlink" width="10.832ex" height="2.843ex" style="font-size: 15px; vertical-align: -0.838ex;" viewBox="0 -863.1 4663.7 1223.9" role="img" focusable="false" xmlns="http://www.w3.org/2000/svg">
<defs>
<path stroke-width="1" id="E1-MJMATHBI-3B8" d="M213 -8Q130 -8 85 50T40 200V207Q40 303 83 428Q122 535 189 608Q279 702 381 702Q410 702 437 693T492 661T537 593T554 486Q554 428 539 362T495 230T425 111T330 25T213 -8ZM433 562Q433 600 419 625T377 651Q363 651 348 644T311 619T268 557T229 453Q225 441 217 411T208 378H401Q433 500 433 562ZM161 140Q161 43 217 43Q249 43 280 74Q310 103 332 150T378 287Q385 313 385 315Q385 316 289 316H192Q191 308 183 275T169 205T161 140Z"></path>
<path stroke-width="1" id="E1-MJMAIN-3D" d="M56 347Q56 360 70 367H707Q722 359 722 347Q722 336 708 328L390 327H72Q56 332 56 347ZM56 153Q56 168 72 173H708Q722 163 722 153Q722 140 707 133H70Q56 140 56 153Z"></path>
<path stroke-width="1" id="E1-MJMAIN-7B" d="M434 -231Q434 -244 428 -250H410Q281 -250 230 -184Q225 -177 222 -172T217 -161T213 -148T211 -133T210 -111T209 -84T209 -47T209 0Q209 21 209 53Q208 142 204 153Q203 154 203 155Q189 191 153 211T82 231Q71 231 68 234T65 250T68 266T82 269Q116 269 152 289T203 345Q208 356 208 377T209 529V579Q209 634 215 656T244 698Q270 724 324 740Q361 748 377 749Q379 749 390 749T408 750H428Q434 744 434 732Q434 719 431 716Q429 713 415 713Q362 710 332 689T296 647Q291 634 291 499V417Q291 370 288 353T271 314Q240 271 184 255L170 250L184 245Q202 239 220 230T262 196T290 137Q291 131 291 1Q291 -134 296 -147Q306 -174 339 -192T415 -213Q429 -213 431 -216Q434 -219 434 -231Z"></path>
<path stroke-width="1" id="E1-MJMATHBI-3BC" d="M294 -8Q265 -8 244 -5T213 1T201 4Q200 4 192 -32T172 -111T155 -168Q134 -211 86 -211Q62 -211 48 -196T34 -158Q37 -144 103 123T174 404Q182 424 201 438T244 452Q271 452 284 436T298 404Q298 392 267 269T235 114Q235 43 305 43Q342 43 375 68T418 110Q420 112 455 253T492 397Q514 444 562 444Q587 444 601 429T615 397Q615 387 599 320T563 178T542 93Q540 81 540 72Q540 42 558 42Q580 42 596 75Q606 94 616 134Q621 155 624 158T646 162H651H662Q682 162 682 148Q681 142 679 132T665 94T641 47T602 9T548 -8Q523 -8 502 -3T468 11T446 27T432 40L429 46Q367 -8 294 -8Z"></path>
<path stroke-width="1" id="E1-MJMAIN-2C" d="M78 35T78 60T94 103T137 121Q165 121 187 96T210 8Q210 -27 201 -60T180 -117T154 -158T130 -185T117 -194Q113 -194 104 -185T95 -172Q95 -168 106 -156T131 -126T157 -76T173 -3V9L172 8Q170 7 167 6T161 3T152 1T140 0Q113 0 96 17Z"></path>
<path stroke-width="1" id="E1-MJMATHBI-3C1" d="M307 -8Q277 -8 251 0T215 14L205 20Q203 18 193 -25T171 -114T155 -168Q134 -211 87 -211Q64 -211 49 -198T34 -162Q34 -158 137 254Q153 299 179 334T232 390T277 419T311 434Q357 451 403 451Q435 451 455 449T506 435T560 400Q603 357 603 285Q603 172 520 82T307 -8ZM474 343Q474 364 458 382T409 400H406Q339 400 299 341Q281 313 264 257Q261 248 242 170T222 89Q222 84 230 74T260 54T308 43Q334 43 365 57T417 110Q437 145 456 228Q474 298 474 332V343Z"></path>
<path stroke-width="1" id="E1-MJMAIN-7D" d="M65 731Q65 745 68 747T88 750Q171 750 216 725T279 670Q288 649 289 635T291 501Q292 362 293 357Q306 312 345 291T417 269Q428 269 431 266T434 250T431 234T417 231Q380 231 345 210T298 157Q293 143 292 121T291 -28V-79Q291 -134 285 -156T256 -198Q202 -250 89 -250Q71 -250 68 -247T65 -230Q65 -224 65 -223T66 -218T69 -214T77 -213Q91 -213 108 -210T146 -200T183 -177T207 -139Q208 -134 209 3L210 139Q223 196 280 230Q315 247 330 250Q305 257 280 270Q225 304 212 352L210 362L209 498Q208 635 207 640Q195 680 154 696T77 713Q68 713 67 716T65 731Z"></path>
</defs>
<g stroke="currentColor" fill="currentColor" stroke-width="0" transform="matrix(1 0 0 -1 0 0)">
 <use xlink:href="#E1-MJMATHBI-3B8" x="0" y="0"></use>
 <use xlink:href="#E1-MJMAIN-3D" x="840" y="0"></use>
 <use xlink:href="#E1-MJMAIN-7B" x="1896" y="0"></use>
 <use xlink:href="#E1-MJMATHBI-3BC" x="2397" y="0"></use>
 <use xlink:href="#E1-MJMAIN-2C" x="3105" y="0"></use>
 <use xlink:href="#E1-MJMATHBI-3C1" x="3550" y="0"></use>
 <use xlink:href="#E1-MJMAIN-7D" x="4163" y="0"></use>
</g>
</svg>