<svg xmlns="http://www.w3.org/2000/svg" viewBox="0 0 116.007 159.452"><g data-name="Layer 2"><g data-name="ART"><rect x="-24.783" y="50.359" width="165.572" height="58.735" rx="23.305" transform="rotate(-118.277 58.004 79.727)" fill="#f7c9a1"/><path d="M80.884 159.452a24.497 24.497 0 01-21.595-12.876L2.932 41.81a24.473 24.473 0 019.96-33.147L23.57 2.919a24.5 24.5 0 0133.148 9.959l56.357 104.765a24.473 24.473 0 01-9.96 33.148l-10.677 5.744a24.314 24.314 0 01-11.554 2.917zM35.127 2.339a21.996 21.996 0 00-10.45 2.638l-10.678 5.744a22.136 22.136 0 00-9.007 29.982l56.357 104.765a22.162 22.162 0 0029.981 9.008l10.678-5.744a22.136 22.136 0 009.007-29.981L54.658 13.985A22.157 22.157 0 0035.127 2.34z" fill="#3e4147"/><rect x="30.079" y="55.845" width="54.366" height="46.077" rx="21.675" transform="rotate(-118.277 57.262 78.883)" fill="#e39d74"/><rect x="35.503" y="60.442" width="43.519" height="36.883" rx="17.35" transform="rotate(-118.277 57.262 78.883)" fill="#f7c9a1"/><circle cx="102.831" cy="132.294" r="4.289" fill="#e39d74"/><circle cx="89.896" cy="139.548" r="4.289" fill="#e39d74"/><circle cx="76.504" cy="147.385" r="4.289" fill="#e39d74"/><circle cx="75.47" cy="133.531" r="4.289" fill="#e39d74"/><circle cx="88.948" cy="125.341" r="4.289" fill="#e39d74"/><circle cx="92.483" cy="110.857" r="4.289" fill="#e39d74"/><circle cx="76.603" cy="118.662" r="4.289" fill="#e39d74"/><circle cx="61.313" cy="126.41" r="4.289" fill="#e39d74"/><circle cx="53.774" cy="36.236" r="4.289" fill="#e39d74"/><circle cx="40.838" cy="43.489" r="4.289" fill="#e39d74"/><circle cx="27.446" cy="51.326" r="4.289" fill="#e39d74"/><circle cx="26.412" cy="37.473" r="4.289" fill="#e39d74"/><circle cx="39.891" cy="29.283" r="4.289" fill="#e39d74"/><circle cx="43.426" cy="14.798" r="4.289" fill="#e39d74"/><circle cx="27.546" cy="22.604" r="4.289" fill="#e39d74"/><circle cx="12.256" cy="30.351" r="4.289" fill="#e39d74"/></g></g></svg>
